# xmcd CD database file
#
# Track frame offsets:
#	150
#	21140
#	36362
#	40608
#	52230
#	71882
#	89732
#	103684
#	124727
#	138515
#	155293
#	167210
#
# Disc length: 3191 seconds
#
# Revision: 0
# Processed by: cddbd v1.5.1PL0 Copyright (c) Steve Scherf et al.
# Submitted via: CDex 1.60beta1
#
DISCID=ac0c750c
DTITLE=Eden - edenation
DYEAR=1900
DGENRE=ゲーム
TTITLE0=FUCK ME -Fucker inc.mix-
TTITLE1=兆し -Full Cycle Style-
TTITLE2=eternal ties -Elysium mix-
TTITLE3=Technical Power -Ultra Overblast mix-
TTITLE4=Blue Moon -Cyber Trance Mix-
TTITLE5=未完成の城 -raining in WESSCYDE mix-
TTITLE6=月姫 -entirety mix-
TTITLE7=edenation
TTITLE8=散華 -artifact mix-
TTITLE9=静かに、ただ静かに… -More Deep Mix-
TTITLE10=SOUND OF DESTINY -"sophisticated" mix-
TTITLE11=comment te dire adieu -divine angel mix-
EXTD=
EXTT0=
EXTT1=
EXTT2=
EXTT3=
EXTT4=
EXTT5=
EXTT6=
EXTT7=
EXTT8=
EXTT9=
EXTT10=
EXTT11=
PLAYORDER=
